<svg width="179" height="59" viewBox="0 0 179 59" fill="none" xmlns="http://www.w3.org/2000/svg">
<path d="M77.6631 31.2557V1.00732H92.7613C99.2885 1.34607 102.179 1.91567 105.791 3.69331C108.444 5.64965 109.343 6.69162 110.507 10.057C111.857 14.4944 111.756 17.0707 110.672 21.7927C109.187 25.395 107.624 27.0306 103.847 29.2722C101.794 30.1358 100.288 30.6399 98.7561 30.9251M77.6631 31.2557H95.0777C96.473 31.2275 97.6215 31.1364 98.7561 30.9251M77.6631 31.2557V49.4791M98.7561 30.9251L105.957 44.556M112.989 57.8677L109.307 50.8986M77.6631 58.0743V55.9668" stroke="white" stroke-width="2"/>
<path d="M49.3086 12.2451L45.6493 23.0226L43.4732 28.7713M49.3086 12.2451L29.1214 17.8347M49.3086 12.2451L53.5318 2.43134M49.3086 12.2451L61.3364 29.4556M49.3086 12.2451L65.8902 13.8069M49.3086 12.2451L42.3841 7.78234L35.5706 2.92564M29.1214 17.8347L28.6748 38.2845M29.1214 17.8347L20.4954 12.2746M29.1214 17.8347L35.5706 2.92564M29.1214 17.8347L43.4732 28.7713M29.1214 17.8347L16.4947 28.4761M28.6748 38.2845L16.4947 28.4761M28.6748 38.2845L20.6064 45.1995M28.6748 38.2845L35.3359 52.9166M28.6748 38.2845L48.6417 45.4799M28.6748 38.2845L43.4732 28.7713M16.4947 28.4761L14.7817 34.7416M16.4947 28.4761L16.4599 28.1457M16.4947 28.4761L20.3634 44.903M15.5668 19.6688L20.4954 12.2746M15.5668 19.6688L14.7817 34.7416M15.5668 19.6688L16.4599 28.1457M20.4954 12.2746L26.9994 5.45622L35.5706 2.92564M20.4954 12.2746L35.5706 2.92564M20.4954 12.2746L16.4599 28.1457M53.5318 2.43134L44.1417 0.395063L35.5706 2.92564M53.5318 2.43134L61.8537 6.16439L72.7053 20.8874M53.5318 2.43134C55.8226 3.84885 61.1101 8.95697 65.8902 13.8069M53.5318 2.43134L35.5706 2.92564M72.7053 20.8874L72.2707 29.7137M72.7053 20.8874C70.9676 19.0352 68.5048 16.4597 65.8902 13.8069M48.6417 45.4799L50.8354 52.6997L56.5024 52.1159M48.6417 45.4799L35.3359 52.9166M48.6417 45.4799L43.4732 28.7713M48.6417 45.4799L61.3364 29.4556M48.6417 45.4799L65.4217 44.5723M35.3359 52.9166C35.467 53.1353 35.5083 53.339 35.3442 53.4167M20.6064 45.1995L29.6617 50.6789C33.5317 53.1176 34.9705 53.5937 35.3442 53.4167M20.6064 45.1995L20.3634 44.903M14.7817 34.7416L14.0944 37.2552L20.3634 44.903M43.4732 28.7713L61.3364 29.4556M72.2707 29.7137L71.7956 39.3629L62.1694 51.532L56.5024 52.1159M72.2707 29.7137L61.3364 29.4556M72.2707 29.7137C70.2093 34.6546 65.9536 44.5435 65.4217 44.5723M61.3364 29.4556L65.8902 13.8069M61.3364 29.4556L65.4217 44.5723M20.3634 44.903L25.6909 52.0425C27.3418 53.3948 32.8143 53.5221 35.3442 53.4167M65.4217 44.5723C64.0271 46.2612 60.2907 50.1343 56.5024 52.1159" stroke="white" stroke-width="0.3"/>
<path d="M62.8555 7.5708L66.5682 14.3209L72.2632 29.714" stroke="white" stroke-width="0.3"/>
<path d="M119.338 50.1109V57.1399H138.206C138.206 57.1399 152.206 55.5926 150.621 41.0042" stroke="white" stroke-width="2"/>
<path d="M140.104 29.6018C140.104 29.6018 150.746 27.8576 150.746 14.2259C150.746 3.02683 137.513 1.00732 137.513 1.00732H119.338V29.6018M140.104 29.6018H119.338M140.104 29.6018C140.104 29.6018 144.887 30.6574 146.76 33.3654M119.338 29.6018V41.627" stroke="white" stroke-width="2"/>
<path d="M11.7058 35.1478C11.1114 35.1478 8.14845 36.7053 6.74127 37.4841L5.64596 39.0416M11.7058 35.1478C10.5913 35.6593 8.8918 36.7203 7.38294 38.2522M11.7058 35.1478C9.50855 36.6888 7.02261 39.1774 6.21029 41.9074M171.718 22.7813L171.853 22.886M171.718 22.7813C172.596 21.755 173.514 20.2393 173.933 18.5449M171.718 22.7813L169.185 24.697M168.375 9.54248L173.002 10.072M168.375 9.54248L169.793 9.88513L174.218 12.6575M168.375 9.54248C171.967 11.1151 173.56 13.2022 174.02 15.3052M173.002 10.072L177.122 13.81M173.002 10.072C173.362 10.8547 174.109 12.4675 174.218 12.6575M177.122 13.81L177.182 14.1838M177.122 13.81L174.218 12.6575M168.915 30.3819L154.934 37.211M168.915 30.3819L161.418 31.511M168.915 30.3819L172.997 26.5193M19.237 57.6071L9.94963 55.738M19.237 57.6071L19.1693 57.5498M19.237 57.6071L26.7344 57.8166M9.94963 55.738L3.97195 53.2772L3.8212 53.0591M9.94963 55.738L10.0453 55.5511M1 48.9785L1.01792 48.885M1 48.9785L6.53864 50.8283M1 48.9785L3.8212 53.0591M4.68117 47.9194L4.23735 44.8355M4.68117 47.9194L6.17144 46.2996M4.68117 47.9194L1.82432 44.6798M4.68117 47.9194L4.71359 47.9667M11.3343 53.2772L7.45049 51.1329M11.3343 53.2772L10.6725 50.0687M11.3343 53.2772H11.4356L12.9554 51.59M11.3343 53.2772C11.327 53.2862 11.2802 53.2927 11.1992 53.297M11.3343 53.2772L15.6909 54.1855M64.0527 53.7444L51.2192 54.8658L45.5793 55.353M64.0527 53.7444L64.7281 53.6465M64.0527 53.7444C56.7849 53.2959 52.7615 52.7586 51.6583 52.546M137.71 39.945L137.372 40.0258M137.71 39.945L145.106 40.3627M137.71 39.945L149.699 36.2896M149.868 36.2381L160.81 31.8459M149.868 36.2381L149.699 36.2896M149.868 36.2381L154.528 37.1332M149.868 36.2381L153.92 32.4321M160.81 31.8459C160.81 32.1201 156.622 35.485 154.528 37.1332M160.81 31.8459L160.996 31.7436M168.442 27.6407L161.418 31.511M168.442 27.6407L168.679 30.3819M168.442 27.6407L173.171 23.9069M168.442 27.6407L172.428 26.6595M168.442 27.6407L169.557 24.6233M168.442 27.6407L164.018 28.2665M176.007 19.6663L173.373 23.7469L173.171 23.9069M176.007 19.6663L176.379 16.4578M176.007 19.6663L171.853 22.886M176.007 19.6663L174.724 18.9724M176.007 19.6663L177.764 19.2513M176.007 19.6663L175.433 24.015M176.379 16.4578L174.218 12.6575M176.379 16.4578L176.317 16.5512M176.379 16.4578L177.182 14.1838M174.218 12.6575L174.724 15.6872M7.38294 38.2522L5.64596 39.0416M7.38294 38.2522C7.29904 38.3373 7.21572 38.424 7.13312 38.5121M5.64596 39.0416L5.2634 41.0664M5.64596 39.0416L3.76202 41.7205M5.2634 41.0664L3.76202 41.7205M5.2634 41.0664C5.77942 40.116 6.43009 39.2618 7.13312 38.5121M5.2634 41.0664L6.71827 40.0384M5.2634 41.0664C5.14761 41.2796 5.0386 41.4977 4.93729 41.7205M3.76202 41.7205L3.56486 42.0009M7.13312 38.5121L6.71827 40.0384M6.21029 41.9074L6.71827 40.0384M6.21029 41.9074C6.02774 42.5209 5.92972 43.1466 5.93847 43.7764M4.93729 41.7205C4.56044 42.5494 4.29026 43.444 4.17459 44.3994L4.21493 44.6798M4.93729 41.7205L5.74127 43.3715M5.93847 43.7764L5.74127 43.3715M5.93847 43.7764C5.9529 44.8154 6.25787 45.8657 6.95331 46.8914M5.74127 43.3715L4.21493 44.6798M4.21493 44.6798C4.00405 44.904 3.69368 42.9873 3.56486 42.0009M4.21493 44.6798L4.23735 44.8355M3.56486 42.0009L1.87808 44.3994L1.86016 44.4929M1.86016 44.4929L4.23735 44.8355M1.86016 44.4929L1.82432 44.6798M4.23735 44.8355L6.17144 46.2996M6.95331 46.8914L6.17144 46.2996M6.95331 46.8914C7.34001 47.4618 7.84744 48.0245 8.49278 48.5735M1.82432 44.6798L1.01792 48.885M1.01792 48.885L4.71359 47.9667M4.71359 47.9667L6.53864 50.6294L6.63995 50.6854M4.71359 47.9667L10.4554 49.9441M10.4554 49.9441C9.69377 49.4998 9.04312 49.0417 8.49278 48.5735M10.4554 49.9441C10.5268 49.9858 10.5992 50.0273 10.6725 50.0687M8.49278 48.5735L6.63995 50.6854M6.63995 50.6854L7.45049 51.1329M6.63995 50.6854C9.09857 50.456 10.3528 50.1787 10.6725 50.0687M7.45049 51.1329L6.53864 50.8283M6.53864 50.8283L3.8212 53.0591M3.8212 53.0591C6.06945 53.1631 10.3804 53.341 11.1992 53.297M10.6725 50.0687C11.4187 50.4899 12.2666 50.8981 13.2255 51.29M13.2255 51.29C13.5816 51.4355 13.9529 51.5788 14.34 51.7197L19.8449 52.7775M13.2255 51.29L12.9554 51.59M11.1992 53.297L10.0453 55.5511M12.9554 51.59L15.4545 53.9611M15.6909 54.1855L15.4545 53.9611M15.6909 54.1855L15.826 54.2136M15.4545 53.9611L19.5747 52.8503M19.8449 52.7775L22.4453 53.2772L26.9708 53.3493M19.8449 52.7775L19.5747 52.8503M19.5747 52.8503L20.9931 55.2908M20.9931 55.2908L21.1958 55.3331L21.2971 55.3358M20.9931 55.2908L15.826 54.2136M20.9931 55.2908L26.5318 53.4919M15.826 54.2136L15.3532 54.323M10.0453 55.5511L15.3532 54.323M15.3532 54.323L19.1693 57.5498M21.2971 55.3358L21.0901 55.5511M21.2971 55.3358L31.8678 55.6153M19.1693 57.5498L21.0901 55.5511M21.0901 55.5511L26.7344 57.8166M26.7344 57.8166L26.8357 57.8194M26.8357 57.8194L31.6651 55.8583M26.8357 57.8194L40.2095 58.1932M32.2393 55.6252L40.0406 55.8315L45.1065 55.3939M32.2393 55.6252L31.8678 55.6153M32.2393 55.6252L31.6651 55.8583M26.9708 53.3493L26.5318 53.4919M26.9708 53.3493L38.5547 53.5339M26.5318 53.4919C26.5858 53.5693 30.1116 54.9398 31.8678 55.6153M31.8678 55.6153L39.3314 53.7329M31.6651 55.8583C34.5245 56.5932 40.2365 58.089 40.2095 58.1932M40.2095 58.1932L40.4121 58.1989L44.9038 57.8563L52.1649 57.233M40.2095 58.1932L45.3766 55.4602M45.5793 55.353L45.3766 55.4602M45.5793 55.353L45.1065 55.3939M45.3766 55.4602L52.1649 57.233M52.1649 57.233L67.7676 55.8938L79.0475 54.2114M52.1649 57.233L64.7281 53.6465M64.7281 53.6465L74.7922 52.1869L91.3744 49.5998M64.7281 53.6465L78.4734 54.1888M64.7281 53.6465L77.494 49.3603M79.0475 54.2114L91.577 52.3427L103.803 50.2245C104.247 50.1521 104.686 50.0795 105.12 50.0071M79.0475 54.2114L78.4734 54.1888M78.4734 54.1888L91.3744 49.5998M91.3744 49.5998L95.1568 49.0096L111.165 46.0504L115.285 45.2655M91.3744 49.5998L103.971 49.973M91.3744 49.5998L102.789 45.2198M91.3744 49.5998L77.494 49.3603M105.12 50.0071C113.038 48.683 119.059 47.3722 121.161 46.8603L127.882 45.1748M105.12 50.0071L103.971 49.973M103.971 49.973L115.623 45.2012M115.623 45.2012L117.379 44.8667L127.173 42.4681L137.372 40.0258M115.623 45.2012L127.038 45.1766M115.623 45.2012L115.285 45.2655M127.882 45.1748L139.669 42.2189L145.342 40.3761M127.882 45.1748L127.038 45.1766M127.038 45.1766L137.372 40.0258M137.372 40.0258L142.505 36.2896M137.372 40.0258L125.586 40.5887M145.342 40.3761L154.63 37.3595L154.934 37.211M145.342 40.3761L145.106 40.3627M145.106 40.3627L149.699 36.2896M149.699 36.2896H142.505M154.934 37.211L154.528 37.1332M161.418 31.511L161.181 31.6413M172.997 26.5193L175.433 24.2142L175.535 24.0199M172.997 26.5193L172.428 26.6595M173.171 23.9069L172.428 26.6595M173.171 23.9069L171.853 22.886M173.171 23.9069L175.433 24.015M173.171 23.9069L169.557 24.6233M175.535 24.0199L178 19.2925L177.985 19.199M175.535 24.0199L175.433 24.015M177.985 19.199L177.182 14.1838M177.985 19.199L177.764 19.2513M173.933 18.5449L174.724 18.9724M173.933 18.5449C174.19 17.5081 174.26 16.4045 174.02 15.3052M174.724 18.9724L176.317 16.5512M176.317 16.5512L174.724 15.6872M176.317 16.5512L177.764 19.2513M174.02 15.3052L174.724 15.6872M169.185 24.697L166.653 26.6127L163.106 28.3955M169.185 24.697L169.557 24.6233M163.106 28.3955L158.784 30.5688L153.38 32.4847M163.106 28.3955L164.018 28.2665M164.018 28.2665L161.181 31.6413M161.181 31.6413L160.996 31.7436M153.38 32.4847L146.22 35.0232L141.538 36.2896M153.38 32.4847L153.92 32.4321M160.996 31.7436L153.92 32.4321M141.538 36.2896L128.828 39.7269C128.279 39.9285 127.145 40.2251 125.586 40.5887M141.538 36.2896H142.505M125.586 40.5887L115.285 45.2655M125.586 40.5887C120.581 41.7555 111.204 43.611 102.789 45.2198M115.285 45.2655L102.789 45.2198M102.789 45.2198C98.5912 46.0225 94.6328 46.7638 91.577 47.3275L77.494 49.3603M77.494 49.3603L61.1483 51.7197L52.0298 52.5136M51.6583 52.546L40.0406 53.5575L38.5547 53.5339M51.6583 52.546L52.0298 52.5136M52.0298 52.5136L45.3766 55.2815M45.1065 55.3939L45.3766 55.2815M38.5547 53.5339L39.3314 53.7329M45.3766 55.2815L39.3314 53.7329" stroke="white" stroke-width="0.3" stroke-linejoin="round"/>
<path d="M163.309 1.00732V27.1734" stroke="white" stroke-width="2"/>
<path d="M163.309 35.0857V58.1991" stroke="white" stroke-width="2"/>
</svg>
